<svg width="1024" height="1024" viewBox="0 0 1024 1024" fill="none" xmlns="http://www.w3.org/2000/svg">
  <style>
    path {
      fill: #111;
      transition-duration: 300ms;
      transition-timing-function: ease-in-out;
    }

    @media (prefers-color-scheme: dark) {
      path {
        fill: #EEE;
        transition-duration: 300ms;
        transition-timing-function: ease-in-out;
      }
    }
  </style>
  <path
    d="M171.504 719.316C237.017 719.316 302.529 719.316 370.027 719.316C372.168 723.597 373.399 726.487 374.088 730.992C374.284 732.163 374.48 733.333 374.677 734.503C374.776 735.115 374.876 735.727 374.978 736.357C375.52 739.635 376.12 742.901 376.711 746.17C377.458 750.313 378.187 754.456 378.847 758.614C380.376 774.358 380.376 774.358 388.212 787.072C391.203 788.645 394.216 789.429 397.543 789.95C399.802 790.335 401.744 791.154 403.833 792.063C405.137 792.543 406.443 793.018 407.751 793.486C408.103 793.613 408.455 793.74 408.818 793.871C451.261 809.194 497.259 815.473 542.233 810.822C542.92 810.751 543.607 810.68 544.315 810.607C575.89 807.215 606.387 798.849 635.488 786.23C636.822 785.657 638.157 785.085 639.493 784.514C639.554 783.951 639.616 783.389 639.68 782.809C640.268 777.476 640.857 772.142 641.447 766.809C641.751 764.068 642.054 761.327 642.355 758.585C642.647 755.934 642.94 753.282 643.234 750.631C643.346 749.626 643.457 748.62 643.567 747.615C645.662 728.541 645.662 728.541 648.646 723.32C648.83 722.984 649.014 722.649 649.204 722.304C650.478 720.415 651.453 719.457 653.717 718.949C655.863 718.81 657.989 718.802 660.137 718.835C660.971 718.833 661.804 718.83 662.638 718.825C664.927 718.816 667.214 718.832 669.503 718.852C671.972 718.869 674.44 718.863 676.909 718.86C681.185 718.858 685.461 718.871 689.737 718.893C695.92 718.926 702.103 718.936 708.285 718.941C718.317 718.95 728.347 718.977 738.378 719.014C748.123 719.051 757.867 719.079 767.611 719.097C768.212 719.098 768.812 719.099 769.431 719.1C772.444 719.105 775.457 719.11 778.471 719.115C803.468 719.156 828.465 719.227 853.463 719.316C854.193 720.745 854.919 722.175 855.644 723.606C855.95 724.203 855.95 724.203 856.262 724.812C858.55 729.345 860.722 733.649 859.468 738.801C858.27 742.401 856.361 745.156 852.962 746.982C850.611 747.889 848.602 748.023 846.09 747.999C845.528 747.994 845.528 747.994 844.954 747.989C840.931 747.936 836.922 747.687 832.907 747.44C830.909 747.334 828.911 747.236 826.912 747.138C824.847 747.036 822.784 746.921 820.722 746.782C818.698 746.646 816.675 746.542 814.649 746.46C813.519 746.405 812.391 746.318 811.264 746.23C808.206 746.127 806.234 746.144 803.739 748.023C801.998 749.951 800.495 751.75 800.02 754.356C800.14 755.649 800.438 756.729 800.855 757.958C801.113 758.905 801.372 759.851 801.63 760.798C801.779 761.3 801.928 761.803 802.082 762.321C802.92 765.228 803.577 768.181 804.27 771.125C804.574 772.388 804.88 773.651 805.186 774.913C805.416 775.862 805.416 775.862 805.651 776.83C805.966 778.124 806.283 779.417 806.603 780.71C807.072 782.613 807.531 784.518 807.989 786.424C808.132 786.992 808.275 787.561 808.422 788.147C809.626 793.222 810.612 798.859 807.85 803.568C806.161 805.801 804.003 807.484 801.401 808.534C795.903 809.153 790.764 808.139 785.479 806.734C784.225 806.403 782.969 806.085 781.71 805.772C778.139 804.879 774.574 803.968 771.014 803.034C768.82 802.46 766.623 801.906 764.421 801.365C763.589 801.157 762.759 800.94 761.931 800.715C757.468 799.351 757.468 799.351 753.014 799.987C751.846 800.854 750.905 801.758 749.91 802.815C749.498 803.099 749.086 803.382 748.662 803.675C747.402 804.51 747.402 804.51 747.406 806.428C747.426 807.223 747.46 808.019 747.503 808.813C747.525 809.464 747.525 809.464 747.547 810.128C747.58 811.07 747.619 812.011 747.662 812.953C747.73 814.443 747.783 815.934 747.832 817.426C747.974 821.593 748.149 825.759 748.324 829.925C748.428 832.392 748.52 834.861 748.606 837.329C748.658 838.709 748.725 840.088 748.792 841.467C748.999 846.522 749.057 851.389 745.499 855.386C742.92 857.83 740.246 858.861 736.716 859.112C729.306 858.824 721.434 853.739 714.833 850.641C713.814 850.164 712.795 849.687 711.777 849.211C711.277 848.977 710.777 848.743 710.263 848.502C709.266 848.039 708.268 847.579 707.267 847.124C704.964 846.073 702.71 844.997 700.5 843.759C700.106 843.553 699.713 843.346 699.307 843.133C698.265 842.584 697.237 842.005 696.212 841.424C693.529 840.659 691.016 841.814 688.632 843.006C686.42 844.342 685.311 845.579 684.566 848.15C684.127 850.213 683.859 852.28 683.61 854.374C683.475 855.281 683.337 856.187 683.195 857.093C682.832 859.469 682.512 861.849 682.201 864.233C681.817 867.121 681.386 870.002 680.959 872.884C680.628 875.127 680.304 877.371 680.004 879.62C678.551 890.328 678.551 890.328 673.842 894.086C670.904 896.117 667.588 896.556 664.093 896.036C660.899 894.889 658.351 893.235 655.619 891.246C655.201 890.947 654.783 890.647 654.352 890.338C653.02 889.382 651.691 888.42 650.363 887.457C649.482 886.823 648.602 886.188 647.721 885.554C645.988 884.305 644.256 883.053 642.525 881.801C638.669 879.01 638.669 879.01 634.787 876.255C633.311 875.216 631.875 874.157 630.471 873.021C628.003 870.961 628.003 870.961 624.98 870.291C623.665 870.583 622.451 870.991 621.185 871.444C620.414 871.583 619.639 871.704 618.861 871.801C618.306 871.872 617.751 871.943 617.18 872.016C617.045 872.495 617.045 872.495 616.907 872.984C615.649 877.316 614.126 881.537 612.558 885.764C612.42 886.138 612.281 886.512 612.138 886.897C611.406 888.872 610.67 890.846 609.932 892.82C609.328 894.44 608.729 896.061 608.135 897.685C607.411 899.664 606.677 901.639 605.937 903.612C605.659 904.357 605.384 905.104 605.113 905.851C603.424 910.501 601.642 915.27 597.143 917.864C593.976 919.288 590.598 919.461 587.265 918.557C582.296 916.636 579.206 912.512 575.825 908.58C574.557 907.151 573.202 905.827 571.84 904.489C570.435 903.059 569.144 901.539 567.835 900.021C566.87 898.935 565.869 897.912 564.832 896.894C563.451 895.538 562.158 894.144 560.898 892.676C560.395 892.113 560.395 892.113 559.882 891.539C558.825 890.317 558.825 890.317 557.75 888.862C555.63 886.203 555.63 886.203 552.551 885.002C549.834 884.938 547.196 885.292 544.522 885.741C544.365 886.158 544.209 886.575 544.047 887.004C543.407 888.531 542.679 889.865 541.815 891.275C541.345 892.046 541.345 892.046 540.865 892.833C540.526 893.383 540.187 893.932 539.838 894.499C539.486 895.073 539.134 895.647 538.771 896.239C535.144 902.146 531.482 908.033 527.783 913.896C527.093 914.993 526.409 916.094 525.729 917.197C525.384 917.753 525.039 918.308 524.683 918.881C524.376 919.379 524.069 919.878 523.753 920.391C521.895 923.032 519.577 925.318 516.488 926.347C512.064 926.716 508.097 926.849 504.474 924.059C501.424 920.633 499.154 916.526 496.786 912.621C495.98 911.299 495.171 909.979 494.363 908.658C494.159 908.324 493.955 907.989 493.744 907.645C491.588 904.117 489.398 900.611 487.203 897.108C486.854 896.55 486.504 895.992 486.144 895.417C485.493 894.379 484.84 893.342 484.182 892.308C483.621 891.399 483.083 890.476 482.578 889.535C481.372 887.344 480.749 886.465 478.445 885.315C475.634 884.68 472.758 884.258 470.213 885.839C467.935 887.806 466.105 890.155 464.262 892.522C462.72 894.451 461.017 896.217 459.313 898.002C458.65 898.71 457.989 899.419 457.328 900.129C455.889 901.669 454.446 903.205 453.001 904.74C452.622 905.142 452.243 905.545 451.853 905.961C451.131 906.727 450.409 907.493 449.686 908.258C447.943 910.111 446.252 911.987 444.607 913.928C442.082 916.825 439.315 918.51 435.487 919.165C432.065 919.327 429.462 918.584 426.666 916.624C423.867 913.986 422.386 911.114 421.07 907.548C420.881 907.056 420.692 906.564 420.498 906.058C420.09 904.994 419.687 903.929 419.287 902.862C418.641 901.141 417.985 899.425 417.327 897.709C416.178 894.705 415.042 891.697 413.912 888.686C413.209 886.817 412.503 884.949 411.796 883.082C411.347 881.889 410.899 880.695 410.451 879.502C410.24 878.946 410.029 878.39 409.811 877.818C409.524 877.049 409.524 877.049 409.231 876.265C408.978 875.591 408.978 875.591 408.719 874.903C408.359 873.731 408.359 873.731 408.359 872.016C407.426 871.897 406.493 871.778 405.56 871.659C404.354 871.444 404.354 871.444 403.187 871.043C401.235 870.406 399.845 870.051 397.89 870.812C396.498 871.668 395.21 872.595 393.913 873.588C393.437 873.933 392.961 874.278 392.47 874.634C391.078 875.65 389.704 876.687 388.335 877.735C387.989 877.998 387.644 878.262 387.288 878.533C385.809 879.666 384.34 880.811 382.875 881.962C379.984 884.185 376.941 886.199 373.916 888.235C371.371 889.951 368.886 891.715 366.455 893.59C363.11 896.019 359.743 896.603 355.724 896.036C352.072 894.853 349.321 892.696 347.402 889.342C346.496 887.287 346.104 885.469 345.745 883.253C345.678 882.847 345.611 882.442 345.542 882.023C345.323 880.693 345.112 879.361 344.901 878.03C344.75 877.101 344.599 876.173 344.447 875.245C344.049 872.809 343.659 870.372 343.27 867.935C342.951 865.941 342.626 863.948 342.302 861.954C341.915 859.58 341.53 857.206 341.147 854.832C341.073 854.378 341 853.924 340.924 853.456C340.718 852.176 340.513 850.896 340.308 849.616C340.191 848.887 340.075 848.158 339.954 847.407C339.705 845.708 339.705 845.708 339.705 844.564C339.221 844.423 338.738 844.281 338.239 844.135C336.651 843.558 335.642 843.038 334.27 842.134C332.39 840.924 332.39 840.924 330.705 841.516C328.565 842.386 326.465 843.316 324.372 844.294C323.945 844.491 323.519 844.689 323.079 844.892C322.167 845.314 321.255 845.737 320.344 846.16C317.965 847.264 315.584 848.362 313.202 849.459C312.73 849.677 312.257 849.895 311.77 850.119C307.629 852.023 303.472 853.885 299.3 855.716C298.715 855.974 298.13 856.231 297.527 856.496C292.954 858.494 289.109 859.801 284.139 858.29C281.028 856.984 278.814 854.327 277.301 851.366C276.608 849.195 276.613 847.148 276.643 844.895C276.646 844.403 276.649 843.911 276.652 843.405C276.707 838.908 276.966 834.425 277.224 829.936C277.343 827.706 277.46 825.476 277.576 823.245C277.661 821.717 277.754 820.191 277.86 818.664C278.014 816.429 278.121 814.194 278.225 811.956C278.28 811.278 278.334 810.599 278.391 809.9C278.532 806.173 278.532 806.173 276.661 803.074C274.883 801.632 273.1 800.407 271.052 799.383C269.851 799.598 268.661 799.867 267.478 800.159C267.111 800.248 266.744 800.337 266.366 800.429C265.567 800.623 264.769 800.82 263.971 801.018C262.7 801.332 261.429 801.64 260.157 801.947C256.539 802.82 252.924 803.702 249.311 804.593C247.1 805.138 244.888 805.674 242.674 806.204C241.837 806.407 241 806.612 240.165 806.822C226.818 810.165 226.818 810.165 221.85 807.64C218.356 804.803 216.043 802.255 215.557 797.668C215.816 793.256 216.921 789.088 218.024 784.826C218.583 782.651 219.118 780.471 219.656 778.292C220.339 775.532 221.028 772.775 221.748 770.024C222.333 767.788 222.891 765.546 223.431 763.298C223.64 762.448 223.859 761.599 224.089 760.754C225.504 756.01 225.504 756.01 224.375 751.401C223.223 750.107 222.035 749.016 220.706 747.912C220.517 747.534 220.328 747.157 220.133 746.768C219.693 746.782 219.252 746.797 218.797 746.811C214.607 746.947 210.417 747.082 206.226 747.215C204.073 747.284 201.92 747.353 199.766 747.423C197.681 747.491 195.597 747.558 193.512 747.623C192.723 747.648 191.935 747.674 191.146 747.7C173.212 748.29 173.212 748.29 169.808 745.164C165.98 741.017 165.783 738.493 165.783 732.47C167.671 728.13 169.559 723.789 171.504 719.316ZM309.895 749.851C305.416 755.922 303.644 762.163 304.234 769.644C305.732 776.662 309.358 781.986 315.104 786.23C321.087 789.935 327.123 791.093 333.984 789.518C340.35 787.78 345.54 784.483 349.36 778.938C352.647 773.032 353.883 766.472 352.486 759.846C350.711 753.837 347.206 748.607 341.994 745.052C331.092 739.225 318.395 740.203 309.895 749.851ZM674.749 751.808C672.707 754.509 671.388 757.269 670.387 760.494C670.277 760.843 670.168 761.193 670.056 761.553C668.651 768.703 670.122 775.506 674.141 781.511C677.946 786.393 683.128 790.159 689.266 791.377C696.689 792.203 703.046 791.064 709.217 786.661C714.278 782.492 717.836 777.144 718.889 770.612C719.482 763.444 717.678 756.838 713.094 751.232C708.748 746.475 703.425 743.048 696.863 742.628C687.827 742.396 680.784 744.704 674.749 751.808Z" />
  <path
    d="M518.423 98.2249C522.559 101.375 525.23 105.782 527.899 110.163C528.444 111.047 528.444 111.047 529 111.948C529.972 113.525 530.941 115.104 531.908 116.684C532.936 118.363 533.97 120.038 535.003 121.713C536.909 124.804 538.812 127.897 540.709 130.993C541.579 132.4 542.467 133.792 543.359 135.184C544.526 137.115 544.526 137.115 544.526 138.258C550.255 139.338 550.255 139.338 555.649 137.99C556.637 136.798 557.439 135.569 558.257 134.255C558.905 133.569 559.572 132.901 560.259 132.253C561.663 130.875 562.979 129.455 564.264 127.964C565.549 126.473 566.864 125.053 568.269 123.675C569.661 122.308 570.965 120.901 572.238 119.421C573.976 117.404 575.822 115.537 577.724 113.675C578.848 112.527 579.866 111.329 580.891 110.092C583.199 107.404 586.074 105.345 589.712 104.972C593.316 104.895 596.407 105.24 599.269 107.598C602.77 111.287 604.25 115.736 605.954 120.418C606.281 121.293 606.609 122.169 606.938 123.044C607.794 125.332 608.638 127.625 609.48 129.919C610.172 131.798 610.872 133.673 611.573 135.548C612.409 137.783 613.241 140.02 614.071 142.257C614.309 142.898 614.309 142.898 614.552 143.551C614.998 144.754 615.441 145.957 615.882 147.161C616.135 147.845 616.387 148.53 616.647 149.236C617.184 150.84 617.184 150.84 617.184 151.984C618.066 152.164 618.948 152.342 619.83 152.52C620.322 152.62 620.813 152.719 621.319 152.822C621.842 152.923 622.366 153.024 622.905 153.128C623.74 153.361 623.74 153.361 624.591 153.599C626.96 153.736 628.14 152.749 629.914 151.341C630.62 150.809 631.326 150.277 632.032 149.746C632.406 149.46 632.78 149.173 633.164 148.878C635.246 147.3 637.375 145.787 639.497 144.263C640.377 143.628 641.258 142.992 642.138 142.356C645.634 139.832 649.133 137.314 652.655 134.827C653.05 134.548 653.444 134.268 653.851 133.981C655.094 133.103 656.342 132.231 657.59 131.36C657.976 131.087 658.363 130.813 658.761 130.532C659.125 130.279 659.49 130.027 659.865 129.767C660.185 129.543 660.506 129.319 660.836 129.088C663.711 127.457 667.295 127.604 670.458 128.188C673.859 129.219 675.956 131.288 677.828 134.255C679.46 138.892 680.007 143.862 680.647 148.712C680.985 151.224 681.363 153.731 681.732 156.239C682.052 158.428 682.359 160.617 682.639 162.812C682.914 164.958 683.224 167.095 683.558 169.232C683.678 170.04 683.785 170.849 683.878 171.66C684.301 175.277 684.708 177.936 687.606 180.315C690.457 181.989 692.746 183.082 696.092 182.43C697.567 181.881 698.936 181.361 700.308 180.603C700.683 180.402 701.058 180.2 701.444 179.992C701.828 179.785 702.212 179.578 702.608 179.364C703.418 178.958 704.23 178.554 705.043 178.154C706.742 177.315 708.433 176.462 710.119 175.599C714.004 173.627 717.978 171.85 721.951 170.064C723.187 169.507 724.419 168.943 725.651 168.377C726.406 168.032 727.162 167.686 727.917 167.341C728.576 167.039 729.235 166.737 729.914 166.426C733.866 164.755 737.727 164.445 741.762 166.067C745.16 167.76 747.153 170.306 748.439 173.878C749.132 177.126 748.829 180.493 748.686 183.793C748.626 185.215 748.582 186.636 748.541 188.058C748.402 192.655 748.206 197.244 747.904 201.833C747.774 203.852 747.669 205.873 747.567 207.894C747.512 208.859 747.444 209.824 747.364 210.788C747.053 214.538 746.822 217.88 748.57 221.332C750.185 223.103 751.575 224.156 753.919 224.616C758.487 224.611 762.926 223.174 767.293 221.971C768.484 221.666 769.677 221.364 770.87 221.064C773.229 220.468 775.583 219.857 777.934 219.233C781.277 218.348 784.628 217.503 787.989 216.69C788.47 216.571 788.952 216.452 789.447 216.329C794.265 215.173 799.538 214.119 804.051 216.717C806.697 218.724 808.334 220.905 809.414 224.045C810.049 229.092 808.912 233.9 807.684 238.765C807.364 240.033 807.055 241.303 806.748 242.574C805.985 245.723 805.205 248.868 804.425 252.012C803.763 254.687 803.108 257.362 802.46 260.04C802.156 261.29 801.841 262.537 801.527 263.785C801.341 264.548 801.156 265.312 800.971 266.076C800.806 266.742 800.641 267.407 800.471 268.092C800.238 269.981 800.378 270.532 801.405 272.085C801.636 272.527 801.868 272.97 802.106 273.425C803.504 275.627 804.524 277.023 807.133 277.639C809.288 277.718 811.401 277.632 813.549 277.484C814.346 277.449 815.143 277.416 815.941 277.385C818.037 277.299 820.13 277.18 822.224 277.055C824.333 276.934 826.442 276.841 828.551 276.746C831.663 276.605 834.773 276.446 837.883 276.275C851.859 275.585 851.859 275.585 856.258 279.278C859.006 282.217 860.094 285.609 859.977 289.651C859.288 293.806 856.99 297.653 855.123 301.378C854.813 301.997 854.504 302.615 854.184 303.253C853.948 303.725 853.711 304.197 853.467 304.684C838.21 304.844 822.952 304.965 807.694 305.039C800.609 305.074 793.524 305.123 786.44 305.201C780.263 305.27 774.088 305.314 767.911 305.329C764.641 305.338 761.373 305.359 758.103 305.409C755.023 305.456 751.944 305.47 748.864 305.46C747.736 305.462 746.608 305.475 745.481 305.502C736.535 305.701 736.535 305.701 733.602 303.205C731.97 301.558 730.66 299.71 729.319 297.821C728.393 296.835 727.452 295.862 726.487 294.914C726.038 294.464 725.588 294.014 725.125 293.55C724.68 293.108 724.235 292.665 723.776 292.209C723.324 291.755 722.873 291.301 722.407 290.834C719.655 288.087 716.823 285.482 713.871 282.951C713.21 282.367 712.549 281.782 711.889 281.195C707.01 276.891 701.964 272.876 696.756 268.979C695.622 268.125 694.498 267.26 693.376 266.39C679.158 255.43 663.516 246.401 647.506 238.342C646.922 238.045 646.338 237.747 645.736 237.44C623.723 226.268 600.123 218.568 576.064 213.178C575.513 213.052 574.962 212.927 574.394 212.797C573.885 212.687 573.375 212.577 572.85 212.463C572.405 212.366 571.961 212.269 571.503 212.169C569.579 211.959 568.461 212.24 566.921 213.421C566.562 213.765 566.203 214.109 565.833 214.463C565.43 214.845 565.028 215.227 564.613 215.62C564.191 216.029 563.769 216.438 563.334 216.86C562.899 217.275 562.464 217.691 562.016 218.119C559.216 220.801 556.466 223.528 553.742 226.288C552.647 227.366 551.525 228.374 550.354 229.37C548.204 231.206 546.227 233.188 544.24 235.197C542.3 237.158 540.377 239.099 538.268 240.88C536.037 242.765 534.022 244.841 531.975 246.921C529.084 249.84 526.218 252.638 522.786 254.928C522.446 255.16 522.107 255.392 521.758 255.631C516.931 258.487 510.233 259.015 504.853 257.702C496.344 254.975 490.995 248.899 485.27 242.288C483.465 240.207 481.56 238.264 479.591 236.341C477.629 234.403 475.688 232.479 473.906 230.371C471.691 227.757 469.227 225.394 466.794 222.987C464.99 221.195 463.23 219.395 461.57 217.468C461.27 217.127 460.971 216.786 460.662 216.436C459.853 215.466 459.853 215.466 459.116 214.389C458.26 213.274 457.665 212.696 456.421 212.035C450.772 212.186 444.983 214.024 439.507 215.394C438.846 215.559 438.846 215.559 438.172 215.727C407.069 223.544 377.032 236.531 350.007 253.784C349.655 254.008 349.303 254.233 348.94 254.464C346.979 255.722 345.055 257.029 343.142 258.359C342.791 258.602 342.439 258.844 342.077 259.094C333.745 264.855 325.638 270.879 317.96 277.491C316.344 278.87 314.697 280.198 313.035 281.521C310.21 283.815 307.672 286.326 305.13 288.92C303.892 290.16 302.637 291.321 301.306 292.459C297.459 295.754 293.981 299.394 290.686 303.236C290.261 303.732 289.826 304.221 289.363 304.684C287.844 304.739 286.34 304.758 284.82 304.752C284.098 304.753 284.098 304.753 283.361 304.754C281.734 304.755 280.107 304.752 278.48 304.748C277.319 304.748 276.157 304.748 274.996 304.749C271.833 304.749 268.67 304.745 265.507 304.742C262.205 304.738 258.904 304.738 255.602 304.737C249.345 304.735 243.088 304.73 236.832 304.725C229.71 304.718 222.589 304.715 215.468 304.712C200.815 304.706 186.161 304.696 171.508 304.684C170.535 302.631 169.589 300.567 168.648 298.5C168.238 297.638 168.238 297.638 167.821 296.758C165.915 292.527 164.774 288.466 166.209 283.894C167.413 281.032 169.451 278.863 172.08 277.232C178.269 274.809 185.65 276.165 192.153 276.539C194.19 276.642 196.228 276.737 198.265 276.832C200.374 276.931 202.482 277.042 204.589 277.175C206.652 277.304 208.716 277.405 210.782 277.486C211.936 277.539 213.089 277.622 214.242 277.706C218.256 277.878 218.256 277.878 221.641 275.976C223.084 274.2 224.264 272.414 225.287 270.369C225.075 269.155 224.809 267.949 224.521 266.751C224.432 266.38 224.344 266.009 224.253 265.626C224.06 264.818 223.866 264.01 223.67 263.203C223.358 261.922 223.052 260.64 222.746 259.357C222.096 256.629 221.439 253.902 220.781 251.174C220.024 248.027 219.268 244.879 218.518 241.73C218.217 240.474 217.913 239.218 217.608 237.963C214.637 225.603 214.637 225.603 217.277 220.613C219.68 217.898 222.008 215.64 225.741 215.335C230.761 215.238 235.22 215.978 240.064 217.265C241.318 217.597 242.575 217.915 243.833 218.228C247.404 219.12 250.969 220.032 254.529 220.966C256.723 221.54 258.921 222.094 261.123 222.634C261.955 222.843 262.784 223.06 263.612 223.285C268.075 224.649 268.075 224.649 272.529 224.013C273.697 223.146 274.638 222.242 275.633 221.185C276.046 220.928 276.46 220.671 276.885 220.406C278.065 219.536 278.065 219.536 278.153 218.03C278.115 217.167 278.115 217.167 278.076 216.288C278.053 215.634 278.03 214.981 278.006 214.307C277.969 213.598 277.932 212.888 277.894 212.157C277.851 211.034 277.807 209.91 277.763 208.787C277.699 207.206 277.623 205.625 277.548 204.045C277.457 202.088 277.376 200.131 277.295 198.174C277.272 197.603 277.272 197.603 277.248 197.021C277.201 195.882 277.154 194.744 277.108 193.606C277.077 192.864 277.047 192.122 277.015 191.357C276.68 183.02 276.68 183.02 276.625 179.188C276.605 178.074 276.605 178.074 276.584 176.937C276.86 173.964 277.637 171.333 279.541 169.003C282.885 166.248 285.733 164.775 290.147 164.934C291.822 165.161 293.104 165.641 294.656 166.309C295.26 166.569 295.864 166.829 296.486 167.096C299.961 168.638 303.422 170.21 306.876 171.799C308.195 172.405 309.516 173.008 310.837 173.61C314.749 175.395 318.653 177.191 322.526 179.058C323.101 179.332 323.676 179.605 324.268 179.887C325.306 180.381 326.339 180.885 327.367 181.399C330.083 182.693 330.083 182.693 333.039 182.51C334.899 181.556 334.899 181.556 336.706 180.508C338.565 179.436 338.565 179.436 339.709 179.436C339.838 178.584 339.838 178.584 339.97 177.715C340.772 172.429 341.584 167.144 342.408 161.861C342.809 159.287 343.207 156.713 343.596 154.137C343.95 151.788 344.315 149.441 344.686 147.094C344.824 146.216 344.957 145.338 345.088 144.459C346.708 133.553 346.708 133.553 350.636 130.446C354.141 128.129 357.281 127.478 361.45 127.964C366.873 129.557 371.629 133.943 376.108 137.255C378.266 138.846 380.442 140.41 382.618 141.976C385.295 143.903 387.967 145.837 390.623 147.793C391.091 148.136 391.558 148.478 392.04 148.831C392.937 149.489 393.833 150.149 394.726 150.812C395.332 151.255 395.332 151.255 395.951 151.707C396.482 152.099 396.482 152.099 397.023 152.499C398.683 153.502 399.851 153.815 401.748 153.38C402.232 153.215 402.716 153.049 403.214 152.878C405.139 152.224 406.275 151.984 408.363 151.984C408.431 151.587 408.499 151.19 408.569 150.781C408.975 148.943 409.567 147.26 410.224 145.495C410.355 145.143 410.485 144.791 410.619 144.428C411.049 143.271 411.481 142.115 411.914 140.959C412.216 140.151 412.517 139.343 412.819 138.534C413.451 136.842 414.084 135.151 414.719 133.459C415.529 131.299 416.334 129.136 417.137 126.973C417.758 125.303 418.382 123.635 419.008 121.967C419.307 121.171 419.603 120.374 419.899 119.577C420.313 118.458 420.733 117.342 421.155 116.227C421.392 115.593 421.629 114.959 421.873 114.306C423.648 110.314 425.92 107.67 429.674 105.481C433.852 104.437 437.456 104.786 441.233 106.891C443.897 108.823 445.955 111.31 448.089 113.79C449.721 115.652 451.431 117.442 453.131 119.243C453.863 120.021 454.594 120.8 455.325 121.579C456.451 122.777 457.577 123.973 458.703 125.17C459.457 125.971 460.21 126.772 460.962 127.574C461.695 128.352 462.431 129.127 463.17 129.898C464.73 131.535 466.216 133.138 467.507 134.997C469.259 137.402 470.436 138.59 473.34 139.402C476.03 139.642 478.191 139.195 480.449 137.687C483.622 134.281 485.721 130.021 487.925 125.959C489.772 122.621 491.804 119.404 493.822 116.169C494.59 114.926 495.356 113.683 496.122 112.44C496.477 111.864 496.832 111.289 497.198 110.696C498.061 109.293 498.914 107.885 499.765 106.475C504.225 99.1729 509.582 95.6063 518.423 98.2249ZM492.571 179.293C487.537 185.384 486.662 192.414 487.315 200.024C488.207 204.304 490.179 207.632 493.036 210.891C493.309 211.231 493.583 211.57 493.865 211.921C497.679 216.252 503.725 219.094 509.43 219.606C516.906 219.801 522.935 217.614 528.507 212.606C533.216 207.818 535.629 201.738 536.087 195.092C535.958 188.339 533.247 182.58 528.793 177.613C523.48 172.549 516.789 170.555 509.602 170.701C502.8 171.171 497.219 174.406 492.571 179.293Z" />
  <path
    d="M142.473 504.403L183.617 447.381H226.252L181.511 504.578L229.848 577.128H185.284L142.122 508.175V577.128H106.243V447.381H142.122L142.473 504.403Z" />
  <path
    d="M334.856 538.879H270.115V539.932C270.115 553.734 275.32 560.635 285.73 560.635C295.555 560.635 301.14 556.307 302.485 547.652H334.067C333.131 558.062 327.458 566.454 317.048 572.829C309.387 577.508 299.854 579.847 288.449 579.847C270.495 579.847 257.628 575.841 249.85 567.829C241.955 559.758 238.007 546.804 238.007 528.966C238.007 515.106 242.656 504.081 251.955 495.894C260.962 488.115 272.483 484.226 286.519 484.226C304.006 484.226 316.639 489.139 324.417 498.964C331.376 507.737 334.856 521.042 334.856 538.879ZM270.816 520.545H302.485C302.485 515.398 301.17 510.953 298.538 507.21C295.672 503.292 291.9 501.333 287.221 501.333H286.519C277.162 501.8 271.928 508.204 270.816 520.545Z" />
  <path
    d="M417.143 486.946H448.637L399.51 611.604H368.104L380.825 579.847L343.102 486.946H379.596L397.756 549.67L417.143 486.946Z" />
  <path
    d="M463.55 447.381H518.379C567.622 447.381 592.244 469.02 592.244 512.298C592.244 555.518 567.622 577.128 518.379 577.128H463.55V447.381ZM499.518 472.558V551.95H516.361C526.947 551.95 535.749 548.675 542.767 542.125C550.603 534.932 554.522 524.989 554.522 512.298C554.522 499.607 550.603 489.665 542.767 482.471C535.749 475.863 526.947 472.558 516.361 472.558H499.518Z" />
  <path
    d="M639.967 548.178C639.967 551.453 641.107 554.202 643.388 556.424C645.669 558.822 648.418 560.021 651.634 560.021C658.243 560.021 662.746 557.214 665.144 551.6C666.84 547.798 667.688 542.008 667.688 534.23C657.863 534.23 651.634 534.873 649.003 536.16C642.979 539.142 639.967 543.149 639.967 548.178ZM701.638 577.128H668.916C668.449 575.198 668.098 571.133 667.864 564.934C661.489 574.876 651.898 579.847 639.09 579.847C628.563 579.847 620.55 577.157 615.053 571.776C609.672 566.571 606.982 559.495 606.982 550.547V549.845C607.333 529.2 623.972 518.878 656.898 518.878H667.688C667.688 512.094 667.396 507.912 666.811 506.333C665.466 502.122 662.103 500.017 656.723 500.017H655.845C652.102 500.134 649.207 501.83 647.16 505.105C645.757 507.503 645.055 510.193 645.055 513.176V513.877L612.86 513.526C612.86 493.993 628.446 484.226 659.618 484.226C670.145 484.226 679.122 486.39 686.549 490.718C695.264 495.747 699.621 502.941 699.621 512.298V558.618C699.621 559.67 700.293 565.84 701.638 577.128Z" />
  <path
    d="M802.874 514.755H770.503C770.503 507.561 766.672 503.964 759.011 503.964C753.63 503.964 750.94 506.684 750.94 512.123C750.94 514.755 754.098 516.889 760.415 518.527C769.07 520.691 777.638 522.855 786.118 525.019C798.224 528.879 804.278 537.154 804.278 549.845C804.278 569.847 789.891 579.847 761.116 579.847C747.841 579.847 737.84 577.917 731.114 574.057C722.166 569.145 717.692 560.401 717.692 547.827H749.975C749.858 548.412 749.8 549.026 749.8 549.67C749.8 551.95 750.706 554.085 752.519 556.074C754.8 558.705 757.432 560.021 760.415 560.021C768.076 560.021 771.907 557.272 771.907 551.775C771.907 547.74 767.316 544.406 758.134 541.774C743.747 537.914 735.179 535.253 732.43 533.791C723.19 529.054 718.569 522.007 718.569 512.649C718.569 502.59 723.307 495.046 732.781 490.016C740.091 486.156 749.244 484.226 760.239 484.226C787.434 484.226 801.646 494.402 802.874 514.755Z" />
  <path
    d="M857.001 577.128H822.875V447.381H857.001V496.859C864.194 488.437 873.61 484.226 885.249 484.226C895.074 484.226 903.145 487.179 909.461 493.086C915.836 499.052 919.023 506.947 919.023 516.772V577.128H884.898V524.141C884.898 511.918 880.511 505.807 871.739 505.807C861.913 505.807 857.001 512.328 857.001 525.369V577.128Z" />
</svg>